<?xml version="1.0" encoding="UTF-8" standalone="no"?>
<!DOCTYPE svg PUBLIC "-//W3C//DTD SVG 1.1//EN"
 "http://www.w3.org/Graphics/SVG/1.1/DTD/svg11.dtd">
<!-- Generated by graphviz version 2.40.1 (20161225.0304)
 -->
<!-- Title: my_graph Pages: 1 -->
<svg width="335pt" height="129pt"
 viewBox="0.00 0.00 335.00 129.00" xmlns="http://www.w3.org/2000/svg" xmlns:xlink="http://www.w3.org/1999/xlink">
<g id="graph0" class="graph" transform="scale(1 1) rotate(0) translate(4 125)">
<title>my_graph</title>
<polygon fill="#ffffff" stroke="transparent" points="-4,4 -4,-125 331,-125 331,4 -4,4"/>
<!-- 3 -->
<g id="node1" class="node">
<title>3</title>
<ellipse fill="none" stroke="#000000" cx="212" cy="-103" rx="18" ry="18"/>
<text text-anchor="middle" x="212" y="-99.3" font-family="Times,serif" font-size="14.00" fill="#000000">3</text>
</g>
<!-- 5 -->
<g id="node4" class="node">
<title>5</title>
<ellipse fill="none" stroke="#000000" cx="309" cy="-103" rx="18" ry="18"/>
<text text-anchor="middle" x="309" y="-99.3" font-family="Times,serif" font-size="14.00" fill="#000000">5</text>
</g>
<!-- 3&#45;&gt;5 -->
<g id="edge1" class="edge">
<title>3&#45;&gt;5</title>
<path fill="none" stroke="#000000" d="M230.245,-103C244.4709,-103 264.479,-103 280.7679,-103"/>
<polygon fill="#000000" stroke="#000000" points="280.8369,-106.5001 290.8369,-103 280.8368,-99.5001 280.8369,-106.5001"/>
<text text-anchor="middle" x="260.5" y="-106.8" font-family="Times,serif" font-size="14.00" fill="#000000">0 / 1</text>
</g>
<!-- 2 -->
<g id="node2" class="node">
<title>2</title>
<ellipse fill="none" stroke="#000000" cx="115" cy="-72" rx="18" ry="18"/>
<text text-anchor="middle" x="115" y="-68.3" font-family="Times,serif" font-size="14.00" fill="#000000">2</text>
</g>
<!-- 2&#45;&gt;3 -->
<g id="edge3" class="edge">
<title>2&#45;&gt;3</title>
<path fill="none" stroke="#000000" d="M132.3417,-77.5422C146.9629,-82.215 168.136,-88.9816 184.9785,-94.3643"/>
<polygon fill="#000000" stroke="#000000" points="184.2176,-97.7954 194.8085,-97.5058 186.3486,-91.1277 184.2176,-97.7954"/>
<text text-anchor="middle" x="163.5" y="-94.8" font-family="Times,serif" font-size="14.00" fill="#000000">0 / 1</text>
</g>
<!-- 4 -->
<g id="node5" class="node">
<title>4</title>
<ellipse fill="none" stroke="#000000" cx="212" cy="-49" rx="18" ry="18"/>
<text text-anchor="middle" x="212" y="-45.3" font-family="Times,serif" font-size="14.00" fill="#000000">4</text>
</g>
<!-- 2&#45;&gt;4 -->
<g id="edge2" class="edge">
<title>2&#45;&gt;4</title>
<path fill="none" stroke="#000000" d="M131.5901,-64.6508C137.6059,-62.227 144.5172,-59.7155 151,-58 161.5226,-55.2156 173.3095,-53.2232 183.6963,-51.8329"/>
<polygon fill="#000000" stroke="#000000" points="184.3967,-55.2737 193.9021,-50.5942 183.5532,-48.3247 184.3967,-55.2737"/>
<text text-anchor="middle" x="163.5" y="-61.8" font-family="Times,serif" font-size="14.00" fill="#000000">0 / 1</text>
</g>
<!-- 0 -->
<g id="node3" class="node">
<title>0</title>
<ellipse fill="none" stroke="#000000" cx="18" cy="-37" rx="18" ry="18"/>
<text text-anchor="middle" x="18" y="-33.3" font-family="Times,serif" font-size="14.00" fill="#000000">0</text>
</g>
<!-- 0&#45;&gt;2 -->
<g id="edge4" class="edge">
<title>0&#45;&gt;2</title>
<path fill="none" stroke="#000000" d="M35.3417,-43.2573C49.9629,-48.533 71.136,-56.1728 87.9785,-62.25"/>
<polygon fill="#000000" stroke="#000000" points="87.2141,-65.695 97.8085,-65.7969 89.59,-59.1105 87.2141,-65.695"/>
<text text-anchor="middle" x="66.5" y="-61.8" font-family="Times,serif" font-size="14.00" fill="#000000">0 / 1</text>
</g>
<!-- 1 -->
<g id="node6" class="node">
<title>1</title>
<ellipse fill="none" stroke="#000000" cx="115" cy="-18" rx="18" ry="18"/>
<text text-anchor="middle" x="115" y="-14.3" font-family="Times,serif" font-size="14.00" fill="#000000">1</text>
</g>
<!-- 0&#45;&gt;1 -->
<g id="edge5" class="edge">
<title>0&#45;&gt;1</title>
<path fill="none" stroke="#000000" d="M35.4703,-31.6761C41.3225,-30.0191 47.908,-28.2903 54,-27 64.6485,-24.7446 76.4613,-22.8611 86.8336,-21.4097"/>
<polygon fill="#000000" stroke="#000000" points="87.5607,-24.844 97.0121,-20.0563 86.638,-17.905 87.5607,-24.844"/>
<text text-anchor="middle" x="66.5" y="-30.8" font-family="Times,serif" font-size="14.00" fill="#000000">0 / 1</text>
</g>
</g>
</svg>
