<?xml version="1.0" encoding="UTF-8" standalone="no"?>
<!DOCTYPE svg PUBLIC "-//W3C//DTD SVG 1.1//EN"
 "http://www.w3.org/Graphics/SVG/1.1/DTD/svg11.dtd">
<!-- Generated by graphviz version 2.40.1 (20161225.0304)
 -->
<!-- Title: my_graph Pages: 1 -->
<svg width="141pt" height="196pt"
 viewBox="0.00 0.00 141.00 196.00" xmlns="http://www.w3.org/2000/svg" xmlns:xlink="http://www.w3.org/1999/xlink">
<g id="graph0" class="graph" transform="scale(1 1) rotate(0) translate(4 192)">
<title>my_graph</title>
<polygon fill="#ffffff" stroke="transparent" points="-4,4 -4,-192 137,-192 137,4 -4,4"/>
<!-- 0 -->
<g id="node1" class="node">
<title>0</title>
<ellipse fill="none" stroke="#000000" cx="18" cy="-159" rx="18" ry="18"/>
<text text-anchor="middle" x="18" y="-155.3" font-family="Times,serif" font-size="14.00" fill="#000000">0</text>
</g>
<!-- 2 -->
<g id="node5" class="node">
<title>2</title>
<ellipse fill="none" stroke="#000000" cx="115" cy="-94" rx="18" ry="18"/>
<text text-anchor="middle" x="115" y="-90.3" font-family="Times,serif" font-size="14.00" fill="#000000">2</text>
</g>
<!-- 0&#45;&gt;2 -->
<g id="edge1" class="edge">
<title>0&#45;&gt;2</title>
<path fill="none" stroke="#000000" d="M33.1563,-148.8438C48.8167,-138.3497 73.4667,-121.8316 91.6253,-109.6635"/>
<polygon fill="#000000" stroke="#000000" points="93.5912,-112.5593 99.9502,-104.0849 89.6945,-106.7442 93.5912,-112.5593"/>
<text text-anchor="middle" x="66.5" y="-137.8" font-family="Times,serif" font-size="14.00" fill="#000000">0 / 1</text>
</g>
<!-- 1 -->
<g id="node6" class="node">
<title>1</title>
<ellipse fill="none" stroke="#000000" cx="115" cy="-170" rx="18" ry="18"/>
<text text-anchor="middle" x="115" y="-166.3" font-family="Times,serif" font-size="14.00" fill="#000000">1</text>
</g>
<!-- 0&#45;&gt;1 -->
<g id="edge2" class="edge">
<title>0&#45;&gt;1</title>
<path fill="none" stroke="#000000" d="M36.245,-161.069C50.4709,-162.6823 70.479,-164.9512 86.7679,-166.7984"/>
<polygon fill="#000000" stroke="#000000" points="86.5061,-170.2911 96.8369,-167.9403 87.2949,-163.3357 86.5061,-170.2911"/>
<text text-anchor="middle" x="66.5" y="-168.8" font-family="Times,serif" font-size="14.00" fill="#000000">0 / 1</text>
</g>
<!-- 4 -->
<g id="node2" class="node">
<title>4</title>
<ellipse fill="none" stroke="#000000" cx="18" cy="-94" rx="18" ry="18"/>
<text text-anchor="middle" x="18" y="-90.3" font-family="Times,serif" font-size="14.00" fill="#000000">4</text>
</g>
<!-- 4&#45;&gt;2 -->
<g id="edge3" class="edge">
<title>4&#45;&gt;2</title>
<path fill="none" stroke="#000000" d="M36.245,-94C50.4709,-94 70.479,-94 86.7679,-94"/>
<polygon fill="#000000" stroke="#000000" points="86.8369,-97.5001 96.8369,-94 86.8368,-90.5001 86.8369,-97.5001"/>
<text text-anchor="middle" x="66.5" y="-97.8" font-family="Times,serif" font-size="14.00" fill="#000000">1 / 1</text>
</g>
<!-- 3 -->
<g id="node3" class="node">
<title>3</title>
<ellipse fill="none" stroke="#000000" cx="18" cy="-29" rx="18" ry="18"/>
<text text-anchor="middle" x="18" y="-25.3" font-family="Times,serif" font-size="14.00" fill="#000000">3</text>
</g>
<!-- 5 -->
<g id="node4" class="node">
<title>5</title>
<ellipse fill="none" stroke="#000000" cx="115" cy="-18" rx="18" ry="18"/>
<text text-anchor="middle" x="115" y="-14.3" font-family="Times,serif" font-size="14.00" fill="#000000">5</text>
</g>
<!-- 3&#45;&gt;5 -->
<g id="edge4" class="edge">
<title>3&#45;&gt;5</title>
<path fill="none" stroke="#000000" d="M35.3871,-23.2089C41.2337,-21.5207 47.837,-19.8916 54,-19 64.6587,-17.4581 76.4735,-16.9832 86.8447,-16.9711"/>
<polygon fill="#000000" stroke="#000000" points="86.9772,-20.473 97.0209,-17.1006 87.0663,-13.4735 86.9772,-20.473"/>
<text text-anchor="middle" x="66.5" y="-22.8" font-family="Times,serif" font-size="14.00" fill="#000000">0 / 1</text>
</g>
<!-- 3&#45;&gt;2 -->
<g id="edge5" class="edge">
<title>3&#45;&gt;2</title>
<path fill="none" stroke="#000000" d="M33.1563,-39.1563C48.8167,-49.6503 73.4667,-66.1684 91.6253,-78.3365"/>
<polygon fill="#000000" stroke="#000000" points="89.6945,-81.2558 99.9502,-83.9151 93.5912,-75.4407 89.6945,-81.2558"/>
<text text-anchor="middle" x="66.5" y="-72.8" font-family="Times,serif" font-size="14.00" fill="#000000">2 / 2</text>
</g>
</g>
</svg>
