<?xml version="1.0" encoding="UTF-8" standalone="no"?>
<!DOCTYPE svg PUBLIC "-//W3C//DTD SVG 1.1//EN"
 "http://www.w3.org/Graphics/SVG/1.1/DTD/svg11.dtd">
<!-- Generated by graphviz version 2.40.1 (20161225.0304)
 -->
<!-- Title: my_graph Pages: 1 -->
<svg width="460pt" height="155pt"
 viewBox="0.00 0.00 460.00 155.00" xmlns="http://www.w3.org/2000/svg" xmlns:xlink="http://www.w3.org/1999/xlink">
<g id="graph0" class="graph" transform="scale(1 1) rotate(0) translate(4 151)">
<title>my_graph</title>
<polygon fill="#ffffff" stroke="transparent" points="-4,4 -4,-151 456,-151 456,4 -4,4"/>
<!-- 4 -->
<g id="node1" class="node">
<title>4</title>
<ellipse fill="none" stroke="#000000" cx="330" cy="-77" rx="18" ry="18"/>
<text text-anchor="middle" x="330" y="-73.3" font-family="Times,serif" font-size="14.00" fill="#000000">4</text>
</g>
<!-- 5 -->
<g id="node6" class="node">
<title>5</title>
<ellipse fill="none" stroke="#000000" cx="434" cy="-108" rx="18" ry="18"/>
<text text-anchor="middle" x="434" y="-104.3" font-family="Times,serif" font-size="14.00" fill="#000000">5</text>
</g>
<!-- 4&#45;&gt;5 -->
<g id="edge1" class="edge">
<title>4&#45;&gt;5</title>
<path fill="none" stroke="#000000" d="M347.6422,-82.2587C363.8761,-87.0977 388.1966,-94.347 406.8955,-99.9208"/>
<polygon fill="#000000" stroke="#000000" points="406.0352,-103.3165 416.6184,-102.8189 408.0349,-96.6081 406.0352,-103.3165"/>
<text text-anchor="middle" x="382" y="-100.8" font-family="Times,serif" font-size="14.00" fill="#000000">0 / 14</text>
</g>
<!-- 1 -->
<g id="node2" class="node">
<title>1</title>
<ellipse fill="none" stroke="#000000" cx="226" cy="-129" rx="18" ry="18"/>
<text text-anchor="middle" x="226" y="-125.3" font-family="Times,serif" font-size="14.00" fill="#000000">1</text>
</g>
<!-- 1&#45;&gt;4 -->
<g id="edge3" class="edge">
<title>1&#45;&gt;4</title>
<path fill="none" stroke="#000000" d="M241.0822,-118.5768C247.4028,-114.418 254.9168,-109.7401 262,-106 275.2538,-99.0016 290.5661,-92.3534 303.3007,-87.1922"/>
<polygon fill="#000000" stroke="#000000" points="304.8687,-90.3356 312.8724,-83.3936 302.2865,-83.8292 304.8687,-90.3356"/>
<text text-anchor="middle" x="278" y="-109.8" font-family="Times,serif" font-size="14.00" fill="#000000">0 / 1</text>
</g>
<!-- 1&#45;&gt;5 -->
<g id="edge2" class="edge">
<title>1&#45;&gt;5</title>
<path fill="none" stroke="#000000" d="M244.1719,-128.4817C275.6532,-127.3934 342.3086,-124.2492 398,-116 400.755,-115.5919 403.6132,-115.0915 406.4599,-114.542"/>
<polygon fill="#000000" stroke="#000000" points="407.4573,-117.9085 416.5157,-112.4134 406.0076,-111.0603 407.4573,-117.9085"/>
<text text-anchor="middle" x="330" y="-127.8" font-family="Times,serif" font-size="14.00" fill="#000000">0 / 21</text>
</g>
<!-- 3 -->
<g id="node3" class="node">
<title>3</title>
<ellipse fill="none" stroke="#000000" cx="122" cy="-72" rx="18" ry="18"/>
<text text-anchor="middle" x="122" y="-68.3" font-family="Times,serif" font-size="14.00" fill="#000000">3</text>
</g>
<!-- 3&#45;&gt;4 -->
<g id="edge6" class="edge">
<title>3&#45;&gt;4</title>
<path fill="none" stroke="#000000" d="M140.0948,-72.435C176.3591,-73.3067 258.1714,-75.2734 301.6281,-76.318"/>
<polygon fill="#000000" stroke="#000000" points="301.7177,-79.8211 311.7989,-76.5625 301.886,-72.8231 301.7177,-79.8211"/>
<text text-anchor="middle" x="226" y="-77.8" font-family="Times,serif" font-size="14.00" fill="#000000">0 / 5</text>
</g>
<!-- 3&#45;&gt;1 -->
<g id="edge4" class="edge">
<title>3&#45;&gt;1</title>
<path fill="none" stroke="#000000" d="M138.4637,-79.6351C152.3938,-86.2361 172.7801,-96.2298 190,-106 194.0277,-108.2852 198.2321,-110.8239 202.2876,-113.3564"/>
<polygon fill="#000000" stroke="#000000" points="200.4886,-116.3603 210.8011,-118.79 204.2546,-110.4597 200.4886,-116.3603"/>
<text text-anchor="middle" x="174" y="-109.8" font-family="Times,serif" font-size="14.00" fill="#000000">0 / 11</text>
</g>
<!-- 2 -->
<g id="node4" class="node">
<title>2</title>
<ellipse fill="none" stroke="#000000" cx="226" cy="-18" rx="18" ry="18"/>
<text text-anchor="middle" x="226" y="-14.3" font-family="Times,serif" font-size="14.00" fill="#000000">2</text>
</g>
<!-- 3&#45;&gt;2 -->
<g id="edge5" class="edge">
<title>3&#45;&gt;2</title>
<path fill="none" stroke="#000000" d="M135.2553,-59.5825C141.7477,-53.9715 149.8988,-47.5871 158,-43 170.7821,-35.7625 186.053,-29.9257 198.8821,-25.7178"/>
<polygon fill="#000000" stroke="#000000" points="200.0517,-29.0193 208.5532,-22.6967 197.9644,-22.3378 200.0517,-29.0193"/>
<text text-anchor="middle" x="174" y="-46.8" font-family="Times,serif" font-size="14.00" fill="#000000">0 / 2</text>
</g>
<!-- 2&#45;&gt;4 -->
<g id="edge7" class="edge">
<title>2&#45;&gt;4</title>
<path fill="none" stroke="#000000" d="M243.6462,-22.3602C257.9196,-26.3733 278.1744,-33.1974 294,-43 299.8513,-46.6244 305.5638,-51.3072 310.652,-56.032"/>
<polygon fill="#000000" stroke="#000000" points="308.4874,-58.8132 318.0641,-63.3451 313.4038,-53.8303 308.4874,-58.8132"/>
<text text-anchor="middle" x="278" y="-46.8" font-family="Times,serif" font-size="14.00" fill="#000000">0 / 12</text>
</g>
<!-- 0 -->
<g id="node5" class="node">
<title>0</title>
<ellipse fill="none" stroke="#000000" cx="18" cy="-72" rx="18" ry="18"/>
<text text-anchor="middle" x="18" y="-68.3" font-family="Times,serif" font-size="14.00" fill="#000000">0</text>
</g>
<!-- 0&#45;&gt;1 -->
<g id="edge8" class="edge">
<title>0&#45;&gt;1</title>
<path fill="none" stroke="#000000" d="M33.7938,-81.234C39.9639,-84.6008 47.1834,-88.2518 54,-91 98.6173,-108.988 110.8423,-111.4911 158,-121 170.9779,-123.6169 185.5343,-125.471 197.8393,-126.7307"/>
<polygon fill="#000000" stroke="#000000" points="197.6919,-130.2323 207.9769,-127.6889 198.3507,-123.2633 197.6919,-130.2323"/>
<text text-anchor="middle" x="122" y="-120.8" font-family="Times,serif" font-size="14.00" fill="#000000">0 / 7</text>
</g>
<!-- 0&#45;&gt;3 -->
<g id="edge9" class="edge">
<title>0&#45;&gt;3</title>
<path fill="none" stroke="#000000" d="M36.1154,-72C51.9749,-72 75.2827,-72 93.6169,-72"/>
<polygon fill="#000000" stroke="#000000" points="93.7433,-75.5001 103.7432,-72 93.7432,-68.5001 93.7433,-75.5001"/>
<text text-anchor="middle" x="70" y="-75.8" font-family="Times,serif" font-size="14.00" fill="#000000">0 / 10</text>
</g>
<!-- 0&#45;&gt;2 -->
<g id="edge10" class="edge">
<title>0&#45;&gt;2</title>
<path fill="none" stroke="#000000" d="M33.4861,-62.3225C50.2021,-52.393 77.9423,-37.3852 104,-30 135.2143,-21.1534 172.5139,-18.5875 197.5833,-17.9593"/>
<polygon fill="#000000" stroke="#000000" points="197.9077,-21.4546 207.8499,-17.7937 197.7947,-14.4556 197.9077,-21.4546"/>
<text text-anchor="middle" x="122" y="-33.8" font-family="Times,serif" font-size="14.00" fill="#000000">0 / 8</text>
</g>
</g>
</svg>
