<?xml version="1.0" encoding="UTF-8" standalone="no"?>
<!DOCTYPE svg PUBLIC "-//W3C//DTD SVG 1.1//EN"
 "http://www.w3.org/Graphics/SVG/1.1/DTD/svg11.dtd">
<!-- Generated by graphviz version 2.40.1 (20161225.0304)
 -->
<!-- Title: my_graph Pages: 1 -->
<svg width="335pt" height="44pt"
 viewBox="0.00 0.00 335.00 44.00" xmlns="http://www.w3.org/2000/svg" xmlns:xlink="http://www.w3.org/1999/xlink">
<g id="graph0" class="graph" transform="scale(1 1) rotate(0) translate(4 40)">
<title>my_graph</title>
<polygon fill="#ffffff" stroke="transparent" points="-4,4 -4,-40 331,-40 331,4 -4,4"/>
<!-- 2 -->
<g id="node1" class="node">
<title>2</title>
<ellipse fill="none" stroke="#000000" cx="212" cy="-18" rx="18" ry="18"/>
<text text-anchor="middle" x="212" y="-14.3" font-family="Times,serif" font-size="14.00" fill="#000000">2</text>
</g>
<!-- 3 -->
<g id="node4" class="node">
<title>3</title>
<ellipse fill="none" stroke="#000000" cx="309" cy="-18" rx="18" ry="18"/>
<text text-anchor="middle" x="309" y="-14.3" font-family="Times,serif" font-size="14.00" fill="#000000">3</text>
</g>
<!-- 2&#45;&gt;3 -->
<g id="edge1" class="edge">
<title>2&#45;&gt;3</title>
<path fill="none" stroke="#000000" d="M230.245,-18C244.4709,-18 264.479,-18 280.7679,-18"/>
<polygon fill="#000000" stroke="#000000" points="280.8369,-21.5001 290.8369,-18 280.8368,-14.5001 280.8369,-21.5001"/>
<text text-anchor="middle" x="260.5" y="-21.8" font-family="Times,serif" font-size="14.00" fill="#000000">0 / 1</text>
</g>
<!-- 1 -->
<g id="node2" class="node">
<title>1</title>
<ellipse fill="none" stroke="#000000" cx="115" cy="-18" rx="18" ry="18"/>
<text text-anchor="middle" x="115" y="-14.3" font-family="Times,serif" font-size="14.00" fill="#000000">1</text>
</g>
<!-- 1&#45;&gt;2 -->
<g id="edge2" class="edge">
<title>1&#45;&gt;2</title>
<path fill="none" stroke="#000000" d="M133.245,-18C147.4709,-18 167.479,-18 183.7679,-18"/>
<polygon fill="#000000" stroke="#000000" points="183.8369,-21.5001 193.8369,-18 183.8368,-14.5001 183.8369,-21.5001"/>
<text text-anchor="middle" x="163.5" y="-21.8" font-family="Times,serif" font-size="14.00" fill="#000000">0 / 1</text>
</g>
<!-- 0 -->
<g id="node3" class="node">
<title>0</title>
<ellipse fill="none" stroke="#000000" cx="18" cy="-18" rx="18" ry="18"/>
<text text-anchor="middle" x="18" y="-14.3" font-family="Times,serif" font-size="14.00" fill="#000000">0</text>
</g>
<!-- 0&#45;&gt;1 -->
<g id="edge3" class="edge">
<title>0&#45;&gt;1</title>
<path fill="none" stroke="#000000" d="M36.245,-18C50.4709,-18 70.479,-18 86.7679,-18"/>
<polygon fill="#000000" stroke="#000000" points="86.8369,-21.5001 96.8369,-18 86.8368,-14.5001 86.8369,-21.5001"/>
<text text-anchor="middle" x="66.5" y="-21.8" font-family="Times,serif" font-size="14.00" fill="#000000">0 / 1</text>
</g>
</g>
</svg>
