<?xml version="1.0" encoding="UTF-8" standalone="no"?>
<!DOCTYPE svg PUBLIC "-//W3C//DTD SVG 1.1//EN"
 "http://www.w3.org/Graphics/SVG/1.1/DTD/svg11.dtd">
<!-- Generated by graphviz version 2.40.1 (20161225.0304)
 -->
<!-- Title: my_graph Pages: 1 -->
<svg width="484pt" height="154pt"
 viewBox="0.00 0.00 484.00 154.00" xmlns="http://www.w3.org/2000/svg" xmlns:xlink="http://www.w3.org/1999/xlink">
<g id="graph0" class="graph" transform="scale(1 1) rotate(0) translate(4 150)">
<title>my_graph</title>
<polygon fill="#ffffff" stroke="transparent" points="-4,4 -4,-150 480,-150 480,4 -4,4"/>
<!-- 4 -->
<g id="node1" class="node">
<title>4</title>
<ellipse fill="none" stroke="#000000" cx="345.5" cy="-71" rx="18" ry="18"/>
<text text-anchor="middle" x="345.5" y="-67.3" font-family="Times,serif" font-size="14.00" fill="#000000">4</text>
</g>
<!-- 5 -->
<g id="node6" class="node">
<title>5</title>
<ellipse fill="none" stroke="#000000" cx="458" cy="-30" rx="18" ry="18"/>
<text text-anchor="middle" x="458" y="-26.3" font-family="Times,serif" font-size="14.00" fill="#000000">5</text>
</g>
<!-- 4&#45;&gt;5 -->
<g id="edge1" class="edge">
<title>4&#45;&gt;5</title>
<path fill="none" stroke="#000000" d="M362.5863,-64.773C380.8404,-58.1204 410.0181,-47.4867 431.3067,-39.7282"/>
<polygon fill="#000000" stroke="#000000" points="432.5558,-42.9982 440.7529,-36.2856 430.1589,-36.4214 432.5558,-42.9982"/>
<text text-anchor="middle" x="402.5" y="-59.8" font-family="Times,serif" font-size="14.00" fill="#000000">11 / 14</text>
</g>
<!-- 0 -->
<g id="node2" class="node">
<title>0</title>
<ellipse fill="none" stroke="#000000" cx="18" cy="-77" rx="18" ry="18"/>
<text text-anchor="middle" x="18" y="-73.3" font-family="Times,serif" font-size="14.00" fill="#000000">0</text>
</g>
<!-- 3 -->
<g id="node3" class="node">
<title>3</title>
<ellipse fill="none" stroke="#000000" cx="129" cy="-77" rx="18" ry="18"/>
<text text-anchor="middle" x="129" y="-73.3" font-family="Times,serif" font-size="14.00" fill="#000000">3</text>
</g>
<!-- 0&#45;&gt;3 -->
<g id="edge4" class="edge">
<title>0&#45;&gt;3</title>
<path fill="none" stroke="#000000" d="M36.3294,-77C53.7627,-77 80.2518,-77 100.4511,-77"/>
<polygon fill="#000000" stroke="#000000" points="100.6434,-80.5001 110.6434,-77 100.6433,-73.5001 100.6434,-80.5001"/>
<text text-anchor="middle" x="73.5" y="-80.8" font-family="Times,serif" font-size="14.00" fill="#000000">10 / 10</text>
</g>
<!-- 2 -->
<g id="node4" class="node">
<title>2</title>
<ellipse fill="none" stroke="#000000" cx="233" cy="-128" rx="18" ry="18"/>
<text text-anchor="middle" x="233" y="-124.3" font-family="Times,serif" font-size="14.00" fill="#000000">2</text>
</g>
<!-- 0&#45;&gt;2 -->
<g id="edge3" class="edge">
<title>0&#45;&gt;2</title>
<path fill="none" stroke="#000000" d="M33.7695,-86.2949C39.9366,-89.6692 47.1605,-93.3094 54,-96 101.556,-114.7079 114.4454,-118.5308 165,-126 178.0129,-127.9226 192.5738,-128.5508 204.8727,-128.6471"/>
<polygon fill="#000000" stroke="#000000" points="205.0144,-132.1468 215.0029,-128.6139 204.9914,-125.1468 205.0144,-132.1468"/>
<text text-anchor="middle" x="129" y="-126.8" font-family="Times,serif" font-size="14.00" fill="#000000">8 / 8</text>
</g>
<!-- 1 -->
<g id="node5" class="node">
<title>1</title>
<ellipse fill="none" stroke="#000000" cx="233" cy="-18" rx="18" ry="18"/>
<text text-anchor="middle" x="233" y="-14.3" font-family="Times,serif" font-size="14.00" fill="#000000">1</text>
</g>
<!-- 0&#45;&gt;1 -->
<g id="edge2" class="edge">
<title>0&#45;&gt;1</title>
<path fill="none" stroke="#000000" d="M33.9256,-68.1042C52.0312,-58.4005 82.7475,-43.1646 111,-35 142.3184,-25.9494 179.5981,-21.6496 204.6343,-19.6518"/>
<polygon fill="#000000" stroke="#000000" points="205.1652,-23.1226 214.8858,-18.9083 204.6587,-16.141 205.1652,-23.1226"/>
<text text-anchor="middle" x="129" y="-38.8" font-family="Times,serif" font-size="14.00" fill="#000000">7 / 7</text>
</g>
<!-- 3&#45;&gt;4 -->
<g id="edge5" class="edge">
<title>3&#45;&gt;4</title>
<path fill="none" stroke="#000000" d="M147.0863,-76.4988C184.8145,-75.4532 272.1439,-73.033 317.3103,-71.7812"/>
<polygon fill="#000000" stroke="#000000" points="317.4138,-75.2798 327.3129,-71.504 317.2198,-68.2825 317.4138,-75.2798"/>
<text text-anchor="middle" x="233" y="-77.8" font-family="Times,serif" font-size="14.00" fill="#000000">1 / 5</text>
</g>
<!-- 3&#45;&gt;2 -->
<g id="edge7" class="edge">
<title>3&#45;&gt;2</title>
<path fill="none" stroke="#000000" d="M145.25,-84.9688C161.8665,-93.1172 187.9225,-105.8947 207.3307,-115.4122"/>
<polygon fill="#000000" stroke="#000000" points="206.0013,-118.6584 216.5209,-119.9189 209.0834,-112.3734 206.0013,-118.6584"/>
<text text-anchor="middle" x="181" y="-113.8" font-family="Times,serif" font-size="14.00" fill="#000000">2 / 2</text>
</g>
<!-- 3&#45;&gt;1 -->
<g id="edge6" class="edge">
<title>3&#45;&gt;1</title>
<path fill="none" stroke="#000000" d="M142.3889,-64.8101C148.9106,-59.2489 157.0477,-52.8407 165,-48 177.9585,-40.1119 193.3569,-33.1416 206.2209,-27.9098"/>
<polygon fill="#000000" stroke="#000000" points="207.8747,-31.0204 215.8992,-24.1024 205.312,-24.5063 207.8747,-31.0204"/>
<text text-anchor="middle" x="181" y="-51.8" font-family="Times,serif" font-size="14.00" fill="#000000">7 / 11</text>
</g>
<!-- 2&#45;&gt;4 -->
<g id="edge8" class="edge">
<title>2&#45;&gt;4</title>
<path fill="none" stroke="#000000" d="M249.4611,-120.0647C264.7068,-112.6714 287.9778,-101.2748 308,-91 312.0987,-88.8966 316.4289,-86.6296 320.6337,-84.4038"/>
<polygon fill="#000000" stroke="#000000" points="322.3224,-87.4698 329.5,-79.6767 319.0292,-81.2929 322.3224,-87.4698"/>
<text text-anchor="middle" x="288.5" y="-113.8" font-family="Times,serif" font-size="14.00" fill="#000000">10 / 12</text>
</g>
<!-- 1&#45;&gt;4 -->
<g id="edge9" class="edge">
<title>1&#45;&gt;4</title>
<path fill="none" stroke="#000000" d="M250.0394,-23.8772C265.4792,-29.4212 288.6996,-38.309 308,-48 312.5388,-50.279 317.25,-52.926 321.7378,-55.596"/>
<polygon fill="#000000" stroke="#000000" points="320.1588,-58.7341 330.5089,-60.9984 323.8299,-52.7739 320.1588,-58.7341"/>
<text text-anchor="middle" x="288.5" y="-51.8" font-family="Times,serif" font-size="14.00" fill="#000000">0 / 1</text>
</g>
<!-- 1&#45;&gt;5 -->
<g id="edge10" class="edge">
<title>1&#45;&gt;5</title>
<path fill="none" stroke="#000000" d="M251.0324,-18.9617C290.1172,-21.0463 382.8891,-25.9941 429.801,-28.4961"/>
<polygon fill="#000000" stroke="#000000" points="429.7095,-31.9961 439.8818,-29.0337 430.0824,-25.006 429.7095,-31.9961"/>
<text text-anchor="middle" x="345.5" y="-27.8" font-family="Times,serif" font-size="14.00" fill="#000000">14 / 21</text>
</g>
</g>
</svg>
